<mxfile host="app.diagrams.net" agent="Mozilla/5.0 (Windows NT 10.0; Win64; x64) AppleWebKit/537.36 (KHTML, like Gecko) Chrome/134.0.0.0 Safari/537.36" version="26.1.1">
  <diagram name="Page-1" id="PrmzMZCcjBL3GMlKng2O">
    <mxGraphModel dx="1050" dy="557" grid="1" gridSize="10" guides="1" tooltips="1" connect="1" arrows="1" fold="1" page="1" pageScale="1" pageWidth="827" pageHeight="1169" math="0" shadow="0">
      <root>
        <mxCell id="0" />
        <mxCell id="1" parent="0" />
        <mxCell id="0ZlStfE_Qi-HhSGjazq6-19" style="edgeStyle=orthogonalEdgeStyle;rounded=0;orthogonalLoop=1;jettySize=auto;html=1;exitX=0.5;exitY=1;exitDx=0;exitDy=0;entryX=0;entryY=0.5;entryDx=0;entryDy=0;" edge="1" parent="1" source="0ZlStfE_Qi-HhSGjazq6-1" target="0ZlStfE_Qi-HhSGjazq6-3">
          <mxGeometry relative="1" as="geometry" />
        </mxCell>
        <mxCell id="0ZlStfE_Qi-HhSGjazq6-1" value="" style="ellipse;whiteSpace=wrap;html=1;" vertex="1" parent="1">
          <mxGeometry x="220" y="70" width="120" height="80" as="geometry" />
        </mxCell>
        <mxCell id="0ZlStfE_Qi-HhSGjazq6-2" value="" style="ellipse;whiteSpace=wrap;html=1;" vertex="1" parent="1">
          <mxGeometry x="500" y="70" width="120" height="80" as="geometry" />
        </mxCell>
        <mxCell id="0ZlStfE_Qi-HhSGjazq6-26" style="edgeStyle=orthogonalEdgeStyle;rounded=0;orthogonalLoop=1;jettySize=auto;html=1;exitX=1;exitY=1;exitDx=0;exitDy=0;" edge="1" parent="1" source="0ZlStfE_Qi-HhSGjazq6-3" target="0ZlStfE_Qi-HhSGjazq6-4">
          <mxGeometry relative="1" as="geometry" />
        </mxCell>
        <mxCell id="0ZlStfE_Qi-HhSGjazq6-3" value="" style="ellipse;whiteSpace=wrap;html=1;" vertex="1" parent="1">
          <mxGeometry x="230" y="240" width="120" height="80" as="geometry" />
        </mxCell>
        <mxCell id="0ZlStfE_Qi-HhSGjazq6-4" value="" style="ellipse;whiteSpace=wrap;html=1;" vertex="1" parent="1">
          <mxGeometry x="500" y="240" width="120" height="80" as="geometry" />
        </mxCell>
        <mxCell id="0ZlStfE_Qi-HhSGjazq6-5" value="" style="endArrow=none;html=1;rounded=0;entryX=0.017;entryY=0.413;entryDx=0;entryDy=0;entryPerimeter=0;" edge="1" parent="1" source="0ZlStfE_Qi-HhSGjazq6-3" target="0ZlStfE_Qi-HhSGjazq6-4">
          <mxGeometry width="50" height="50" relative="1" as="geometry">
            <mxPoint x="390" y="320" as="sourcePoint" />
            <mxPoint x="440" y="270" as="targetPoint" />
          </mxGeometry>
        </mxCell>
        <mxCell id="0ZlStfE_Qi-HhSGjazq6-6" value="" style="endArrow=none;html=1;rounded=0;entryX=0.017;entryY=0.413;entryDx=0;entryDy=0;entryPerimeter=0;" edge="1" parent="1">
          <mxGeometry width="50" height="50" relative="1" as="geometry">
            <mxPoint x="350" y="278" as="sourcePoint" />
            <mxPoint x="502" y="273" as="targetPoint" />
          </mxGeometry>
        </mxCell>
        <mxCell id="0ZlStfE_Qi-HhSGjazq6-7" value="" style="endArrow=none;html=1;rounded=0;entryX=0.5;entryY=1;entryDx=0;entryDy=0;exitX=0.5;exitY=0;exitDx=0;exitDy=0;" edge="1" parent="1" source="0ZlStfE_Qi-HhSGjazq6-4" target="0ZlStfE_Qi-HhSGjazq6-2">
          <mxGeometry width="50" height="50" relative="1" as="geometry">
            <mxPoint x="560" y="230" as="sourcePoint" />
            <mxPoint x="542" y="190" as="targetPoint" />
          </mxGeometry>
        </mxCell>
        <mxCell id="0ZlStfE_Qi-HhSGjazq6-8" value="" style="endArrow=none;html=1;rounded=0;entryX=0.5;entryY=0;entryDx=0;entryDy=0;exitX=0.5;exitY=1;exitDx=0;exitDy=0;" edge="1" parent="1" source="0ZlStfE_Qi-HhSGjazq6-1" target="0ZlStfE_Qi-HhSGjazq6-3">
          <mxGeometry width="50" height="50" relative="1" as="geometry">
            <mxPoint x="262" y="195" as="sourcePoint" />
            <mxPoint x="414" y="190" as="targetPoint" />
          </mxGeometry>
        </mxCell>
        <mxCell id="0ZlStfE_Qi-HhSGjazq6-11" value="" style="endArrow=none;html=1;rounded=0;exitX=0.99;exitY=0.677;exitDx=0;exitDy=0;exitPerimeter=0;entryX=0;entryY=0.5;entryDx=0;entryDy=0;" edge="1" parent="1" source="0ZlStfE_Qi-HhSGjazq6-1" target="0ZlStfE_Qi-HhSGjazq6-2">
          <mxGeometry width="50" height="50" relative="1" as="geometry">
            <mxPoint x="410" y="200" as="sourcePoint" />
            <mxPoint x="460" y="150" as="targetPoint" />
            <Array as="points" />
          </mxGeometry>
        </mxCell>
        <mxCell id="0ZlStfE_Qi-HhSGjazq6-12" value="1" style="text;html=1;align=center;verticalAlign=middle;whiteSpace=wrap;rounded=0;" vertex="1" parent="1">
          <mxGeometry x="250" y="95" width="60" height="30" as="geometry" />
        </mxCell>
        <mxCell id="0ZlStfE_Qi-HhSGjazq6-14" value="2" style="text;html=1;align=center;verticalAlign=middle;whiteSpace=wrap;rounded=0;" vertex="1" parent="1">
          <mxGeometry x="270" y="260" width="60" height="30" as="geometry" />
        </mxCell>
        <mxCell id="0ZlStfE_Qi-HhSGjazq6-15" value="4" style="text;html=1;align=center;verticalAlign=middle;whiteSpace=wrap;rounded=0;" vertex="1" parent="1">
          <mxGeometry x="520" y="260" width="60" height="30" as="geometry" />
        </mxCell>
        <mxCell id="0ZlStfE_Qi-HhSGjazq6-16" value="3" style="text;html=1;align=center;verticalAlign=middle;whiteSpace=wrap;rounded=0;" vertex="1" parent="1">
          <mxGeometry x="520" y="95" width="60" height="30" as="geometry" />
        </mxCell>
        <mxCell id="0ZlStfE_Qi-HhSGjazq6-20" style="edgeStyle=orthogonalEdgeStyle;rounded=0;orthogonalLoop=1;jettySize=auto;html=1;exitX=1;exitY=0.5;exitDx=0;exitDy=0;entryX=0.03;entryY=0.318;entryDx=0;entryDy=0;entryPerimeter=0;" edge="1" parent="1" source="0ZlStfE_Qi-HhSGjazq6-1" target="0ZlStfE_Qi-HhSGjazq6-2">
          <mxGeometry relative="1" as="geometry" />
        </mxCell>
        <mxCell id="0ZlStfE_Qi-HhSGjazq6-21" value="when it visits back, what to do&amp;nbsp;" style="text;html=1;align=center;verticalAlign=middle;whiteSpace=wrap;rounded=0;" vertex="1" parent="1">
          <mxGeometry x="70" y="370" width="60" height="30" as="geometry" />
        </mxCell>
        <mxCell id="0ZlStfE_Qi-HhSGjazq6-22" value="it should go forward, pehle ka ni dekhna, but adjacency matrix me toh ayega, kyuki directed toh hai ni" style="text;html=1;align=center;verticalAlign=middle;whiteSpace=wrap;rounded=0;" vertex="1" parent="1">
          <mxGeometry x="170" y="430" width="60" height="30" as="geometry" />
        </mxCell>
        <mxCell id="0ZlStfE_Qi-HhSGjazq6-23" value="isiliye 2 baar ayega, algo ne ye pick kar liya toh automatically false de dega" style="text;html=1;align=center;verticalAlign=middle;whiteSpace=wrap;rounded=0;" vertex="1" parent="1">
          <mxGeometry x="290" y="400" width="60" height="30" as="geometry" />
        </mxCell>
        <mxCell id="0ZlStfE_Qi-HhSGjazq6-24" value="bfs me queue aur visited array isiliye use karte ki peeche na jaye, but peeche gye aur vis true dikha toh gyo" style="text;html=1;align=center;verticalAlign=middle;whiteSpace=wrap;rounded=0;" vertex="1" parent="1">
          <mxGeometry x="400" y="440" width="60" height="30" as="geometry" />
        </mxCell>
      </root>
    </mxGraphModel>
  </diagram>
</mxfile>
